<?xml version="1.0" standalone="no"?>
<!DOCTYPE svg PUBLIC "-//W3C//DTD SVG 20010904//EN"
 "http://www.w3.org/TR/2001/REC-SVG-20010904/DTD/svg10.dtd">
<svg version="1.0" xmlns="http://www.w3.org/2000/svg"
 width="512.000000pt" height="512.000000pt" viewBox="0 0 512.000000 512.000000"
 preserveAspectRatio="xMidYMid meet">
<metadata>
Created by potrace 1.14, written by Peter Selinger 2001-2017
</metadata>
<g transform="translate(0.000000,512.000000) scale(0.100000,-0.100000)"
fill="#000000" stroke="none">
<path d="M1654 5100 c-467 -84 -879 -323 -1185 -685 -19 -22 -36 -42 -39 -45
-4 -3 -22 -27 -41 -55 -18 -27 -37 -52 -40 -55 -17 -16 -106 -171 -153 -270
-86 -179 -134 -338 -182 -605 -4 -22 -9 -375 -10 -785 -3 -858 -2 -869 77
-1149 68 -240 199 -493 358 -691 62 -78 198 -218 261 -269 25 -20 54 -44 65
-54 44 -41 246 -168 340 -215 156 -77 371 -151 510 -175 86 -15 105 -18 170
-26 79 -11 1529 -8 1589 3 21 4 82 16 135 26 53 11 109 23 125 26 129 25 421
156 575 257 223 147 362 282 559 542 28 36 97 155 135 231 108 215 179 452
204 677 10 91 11 1489 1 1578 -66 580 -401 1121 -893 1441 -140 91 -378 206
-453 219 -4 0 -15 5 -24 10 -22 12 -188 55 -248 64 -25 4 -54 10 -65 13 -11 4
-391 7 -845 8 -763 3 -833 1 -926 -16z"/>
</g>
</svg>
